# Wavefront OBJ file automatically generated by Tiled2Unity

# Vertices (Count = 418)
v 0 -16 0
v -16 -16 0
v -16 0 0
v 0 0 0
v -32 -16 0
v -32 0 0
v -48 -16 0
v -48 0 0
v -64 -16 0
v -64 0 0
v -352 -16 0
v -368 -16 0
v -368 0 0
v -352 0 0
v -384 -16 0
v -384 0 0
v -400 -16 0
v -400 0 0
v -416 -16 0
v -416 0 0
v -432 -16 0
v -432 0 0
v -448 -16 0
v -448 0 0
v -464 -16 0
v -464 0 0
v -480 -16 0
v -480 0 0
v -496 -16 0
v -496 0 0
v -512 -16 0
v -512 0 0
v 0 -32 0
v -16 -32 0
v -48 -32 0
v -64 -32 0
v -336 -32 0
v -352 -32 0
v -336 -16 0
v -368 -32 0
v -496 -32 0
v -512 -32 0
v -528 -32 0
v -528 -16 0
v 0 -48 0
v -16 -48 0
v -48 -48 0
v -64 -48 0
v -80 -48 0
v -80 -32 0
v -96 -48 0
v -96 -32 0
v -112 -48 0
v -112 -32 0
v -128 -48 0
v -128 -32 0
v -144 -48 0
v -144 -32 0
v -160 -48 0
v -160 -32 0
v -176 -48 0
v -176 -32 0
v -192 -48 0
v -192 -32 0
v -208 -48 0
v -208 -32 0
v -320 -48 0
v -336 -48 0
v -320 -32 0
v -352 -48 0
v -512 -48 0
v -528 -48 0
v -544 -48 0
v -544 -32 0
v 0 -64 0
v -16 -64 0
v -192 -64 0
v -208 -64 0
v -320 -64 0
v -336 -64 0
v -528 -64 0
v -544 -64 0
v -560 -64 0
v -560 -48 0
v 0 -80 0
v -16 -80 0
v -192 -80 0
v -208 -80 0
v -320 -80 0
v -336 -80 0
v -544 -80 0
v -560 -80 0
v -576 -80 0
v -576 -64 0
v 0 -96 0
v -16 -96 0
v -192 -96 0
v -208 -96 0
v -320 -96 0
v -336 -96 0
v -560 -96 0
v -576 -96 0
v -592 -96 0
v -592 -80 0
v 0 -112 0
v -16 -112 0
v -192 -112 0
v -208 -112 0
v -320 -112 0
v -336 -112 0
v -576 -112 0
v -592 -112 0
v -608 -112 0
v -608 -96 0
v 0 -128 0
v -16 -128 0
v -192 -128 0
v -208 -128 0
v -224 -128 0
v -224 -112 0
v -256 -128 0
v -272 -128 0
v -272 -112 0
v -256 -112 0
v -304 -128 0
v -320 -128 0
v -304 -112 0
v -336 -128 0
v -592 -128 0
v -608 -128 0
v -624 -128 0
v -624 -112 0
v 0 -144 0
v -16 -144 0
v -192 -144 0
v -208 -144 0
v -320 -144 0
v -336 -144 0
v -608 -144 0
v -624 -144 0
v -640 -144 0
v -640 -128 0
v 0 -160 0
v -16 -160 0
v -320 -160 0
v -336 -160 0
v -624 -160 0
v -640 -160 0
v -656 -160 0
v -656 -144 0
v 0 -176 0
v -16 -176 0
v -320 -176 0
v -336 -176 0
v -640 -176 0
v -656 -176 0
v -672 -176 0
v -672 -160 0
v 0 -192 0
v -16 -192 0
v -32 -192 0
v -32 -176 0
v -48 -192 0
v -48 -176 0
v -64 -192 0
v -64 -176 0
v -80 -192 0
v -80 -176 0
v -96 -192 0
v -96 -176 0
v -112 -192 0
v -112 -176 0
v -128 -192 0
v -128 -176 0
v -144 -192 0
v -144 -176 0
v -160 -192 0
v -160 -176 0
v -176 -192 0
v -176 -176 0
v -192 -192 0
v -192 -176 0
v -208 -192 0
v -208 -176 0
v -320 -192 0
v -336 -192 0
v -656 -192 0
v -672 -192 0
v -688 -192 0
v -688 -176 0
v -192 -208 0
v -208 -208 0
v -320 -208 0
v -336 -208 0
v -672 -208 0
v -688 -208 0
v -704 -208 0
v -704 -192 0
v -192 -224 0
v -208 -224 0
v -320 -224 0
v -336 -224 0
v -688 -224 0
v -704 -224 0
v -192 -240 0
v -208 -240 0
v -688 -240 0
v -704 -240 0
v -192 -256 0
v -208 -256 0
v -320 -256 0
v -336 -256 0
v -336 -240 0
v -320 -240 0
v -352 -256 0
v -352 -240 0
v -368 -256 0
v -368 -240 0
v -384 -256 0
v -384 -240 0
v -400 -256 0
v -400 -240 0
v -416 -256 0
v -416 -240 0
v -432 -256 0
v -432 -240 0
v -448 -256 0
v -448 -240 0
v -464 -256 0
v -464 -240 0
v -480 -256 0
v -480 -240 0
v -496 -256 0
v -496 -240 0
v -512 -256 0
v -512 -240 0
v -528 -256 0
v -528 -240 0
v -544 -256 0
v -544 -240 0
v -560 -256 0
v -560 -240 0
v -576 -256 0
v -576 -240 0
v -592 -256 0
v -592 -240 0
v -608 -256 0
v -608 -240 0
v -624 -256 0
v -624 -240 0
v -640 -256 0
v -640 -240 0
v -656 -256 0
v -656 -240 0
v -672 -256 0
v -672 -240 0
v -688 -256 0
v -704 -256 0
v -192 -272 0
v -208 -272 0
v -192 -288 0
v -208 -288 0
v -192 -304 0
v -208 -304 0
v -304 -304 0
v -320 -304 0
v -320 -288 0
v -304 -288 0
v -336 -304 0
v -352 -304 0
v -352 -288 0
v -336 -288 0
v -368 -304 0
v -368 -288 0
v -384 -304 0
v -384 -288 0
v -400 -304 0
v -400 -288 0
v -416 -304 0
v -416 -288 0
v -432 -304 0
v -432 -288 0
v -448 -304 0
v -448 -288 0
v -464 -304 0
v -464 -288 0
v -480 -304 0
v -480 -288 0
v -496 -304 0
v -496 -288 0
v -512 -304 0
v -512 -288 0
v -528 -304 0
v -528 -288 0
v -544 -304 0
v -544 -288 0
v -560 -304 0
v -560 -288 0
v -576 -304 0
v -576 -288 0
v -592 -304 0
v -592 -288 0
v -608 -304 0
v -608 -288 0
v -624 -304 0
v -624 -288 0
v -640 -304 0
v -640 -288 0
v -656 -304 0
v -656 -288 0
v -672 -304 0
v -672 -288 0
v -688 -304 0
v -688 -288 0
v -704 -304 0
v -704 -288 0
v -192 -320 0
v -208 -320 0
v -304 -320 0
v -320 -320 0
v -688 -320 0
v -704 -320 0
v -192 -336 0
v -208 -336 0
v -304 -336 0
v -320 -336 0
v -688 -336 0
v -704 -336 0
v -192 -352 0
v -208 -352 0
v -304 -352 0
v -320 -352 0
v -688 -352 0
v -704 -352 0
v -192 -368 0
v -208 -368 0
v -304 -368 0
v -320 -368 0
v -688 -368 0
v -704 -368 0
v -192 -384 0
v -208 -384 0
v -304 -384 0
v -320 -384 0
v -688 -384 0
v -704 -384 0
v -192 -400 0
v -208 -400 0
v -304 -400 0
v -320 -400 0
v -688 -400 0
v -704 -400 0
v -192 -416 0
v -208 -416 0
v -304 -416 0
v -320 -416 0
v -688 -416 0
v -704 -416 0
v -192 -432 0
v -208 -432 0
v -224 -432 0
v -224 -416 0
v -240 -432 0
v -240 -416 0
v -256 -432 0
v -256 -416 0
v -272 -432 0
v -272 -416 0
v -288 -432 0
v -288 -416 0
v -304 -432 0
v -320 -432 0
v -336 -432 0
v -336 -416 0
v -352 -432 0
v -352 -416 0
v -368 -432 0
v -368 -416 0
v -384 -432 0
v -384 -416 0
v -400 -432 0
v -400 -416 0
v -416 -432 0
v -416 -416 0
v -432 -432 0
v -432 -416 0
v -448 -432 0
v -448 -416 0
v -464 -432 0
v -464 -416 0
v -480 -432 0
v -480 -416 0
v -496 -432 0
v -496 -416 0
v -512 -432 0
v -512 -416 0
v -528 -432 0
v -528 -416 0
v -544 -432 0
v -544 -416 0
v -560 -432 0
v -560 -416 0
v -576 -432 0
v -576 -416 0
v -592 -432 0
v -592 -416 0
v -608 -432 0
v -608 -416 0
v -624 -432 0
v -624 -416 0
v -640 -432 0
v -640 -416 0
v -656 -432 0
v -656 -416 0
v -672 -432 0
v -672 -416 0
v -688 -432 0
v -704 -432 0

# Texture cooridinates (Count = 8)
vt 0.04125318 0.06988949
vt 0.06157459 0.06988949
vt 0.06157459 0.09031719
vt 0.04125318 0.09031719
vt 0.0001220703 0.9754307
vt 0.01376682 0.9754307
vt 0.01376682 0.9998779
vt 0.0001220703 0.9998779

# Normal
vn 0 0 -1

# Groups (Count = 2)

g mesh_0001
f 1/1/1 2/2/1 3/3/1 4/4/1
f 2/1/1 5/2/1 6/3/1 3/4/1
f 5/1/1 7/2/1 8/3/1 6/4/1
f 7/1/1 9/2/1 10/3/1 8/4/1
f 11/1/1 12/2/1 13/3/1 14/4/1
f 12/1/1 15/2/1 16/3/1 13/4/1
f 15/1/1 17/2/1 18/3/1 16/4/1
f 17/1/1 19/2/1 20/3/1 18/4/1
f 19/1/1 21/2/1 22/3/1 20/4/1
f 21/1/1 23/2/1 24/3/1 22/4/1
f 23/1/1 25/2/1 26/3/1 24/4/1
f 25/1/1 27/2/1 28/3/1 26/4/1
f 27/1/1 29/2/1 30/3/1 28/4/1
f 29/1/1 31/2/1 32/3/1 30/4/1
f 33/1/1 34/2/1 2/3/1 1/4/1
f 35/1/1 36/2/1 9/3/1 7/4/1
f 37/1/1 38/2/1 11/3/1 39/4/1
f 38/1/1 40/2/1 12/3/1 11/4/1
f 41/1/1 42/2/1 31/3/1 29/4/1
f 42/1/1 43/2/1 44/3/1 31/4/1
f 45/1/1 46/2/1 34/3/1 33/4/1
f 47/1/1 48/2/1 36/3/1 35/4/1
f 48/1/1 49/2/1 50/3/1 36/4/1
f 49/1/1 51/2/1 52/3/1 50/4/1
f 51/1/1 53/2/1 54/3/1 52/4/1
f 53/1/1 55/2/1 56/3/1 54/4/1
f 55/1/1 57/2/1 58/3/1 56/4/1
f 57/1/1 59/2/1 60/3/1 58/4/1
f 59/1/1 61/2/1 62/3/1 60/4/1
f 61/1/1 63/2/1 64/3/1 62/4/1
f 63/1/1 65/2/1 66/3/1 64/4/1
f 67/1/1 68/2/1 37/3/1 69/4/1
f 68/1/1 70/2/1 38/3/1 37/4/1
f 71/1/1 72/2/1 43/3/1 42/4/1
f 72/1/1 73/2/1 74/3/1 43/4/1
f 75/1/1 76/2/1 46/3/1 45/4/1
f 77/1/1 78/2/1 65/3/1 63/4/1
f 79/1/1 80/2/1 68/3/1 67/4/1
f 81/1/1 82/2/1 73/3/1 72/4/1
f 82/1/1 83/2/1 84/3/1 73/4/1
f 85/1/1 86/2/1 76/3/1 75/4/1
f 87/1/1 88/2/1 78/3/1 77/4/1
f 89/1/1 90/2/1 80/3/1 79/4/1
f 91/1/1 92/2/1 83/3/1 82/4/1
f 92/1/1 93/2/1 94/3/1 83/4/1
f 95/1/1 96/2/1 86/3/1 85/4/1
f 97/1/1 98/2/1 88/3/1 87/4/1
f 99/1/1 100/2/1 90/3/1 89/4/1
f 101/1/1 102/2/1 93/3/1 92/4/1
f 102/1/1 103/2/1 104/3/1 93/4/1
f 105/1/1 106/2/1 96/3/1 95/4/1
f 107/1/1 108/2/1 98/3/1 97/4/1
f 109/1/1 110/2/1 100/3/1 99/4/1
f 111/1/1 112/2/1 103/3/1 102/4/1
f 112/1/1 113/2/1 114/3/1 103/4/1
f 115/1/1 116/2/1 106/3/1 105/4/1
f 117/1/1 118/2/1 108/3/1 107/4/1
f 118/1/1 119/2/1 120/3/1 108/4/1
f 121/1/1 122/2/1 123/3/1 124/4/1
f 125/1/1 126/2/1 109/3/1 127/4/1
f 126/1/1 128/2/1 110/3/1 109/4/1
f 129/1/1 130/2/1 113/3/1 112/4/1
f 130/1/1 131/2/1 132/3/1 113/4/1
f 133/1/1 134/2/1 116/3/1 115/4/1
f 135/1/1 136/2/1 118/3/1 117/4/1
f 137/1/1 138/2/1 128/3/1 126/4/1
f 139/1/1 140/2/1 131/3/1 130/4/1
f 140/1/1 141/2/1 142/3/1 131/4/1
f 143/1/1 144/2/1 134/3/1 133/4/1
f 145/1/1 146/2/1 138/3/1 137/4/1
f 147/1/1 148/2/1 141/3/1 140/4/1
f 148/1/1 149/2/1 150/3/1 141/4/1
f 151/1/1 152/2/1 144/3/1 143/4/1
f 153/1/1 154/2/1 146/3/1 145/4/1
f 155/1/1 156/2/1 149/3/1 148/4/1
f 156/1/1 157/2/1 158/3/1 149/4/1
f 159/1/1 160/2/1 152/3/1 151/4/1
f 160/1/1 161/2/1 162/3/1 152/4/1
f 161/1/1 163/2/1 164/3/1 162/4/1
f 163/1/1 165/2/1 166/3/1 164/4/1
f 165/1/1 167/2/1 168/3/1 166/4/1
f 167/1/1 169/2/1 170/3/1 168/4/1
f 169/1/1 171/2/1 172/3/1 170/4/1
f 171/1/1 173/2/1 174/3/1 172/4/1
f 173/1/1 175/2/1 176/3/1 174/4/1
f 175/1/1 177/2/1 178/3/1 176/4/1
f 177/1/1 179/2/1 180/3/1 178/4/1
f 179/1/1 181/2/1 182/3/1 180/4/1
f 181/1/1 183/2/1 184/3/1 182/4/1
f 185/1/1 186/2/1 154/3/1 153/4/1
f 187/1/1 188/2/1 157/3/1 156/4/1
f 188/1/1 189/2/1 190/3/1 157/4/1
f 191/1/1 192/2/1 183/3/1 181/4/1
f 193/1/1 194/2/1 186/3/1 185/4/1
f 195/1/1 196/2/1 189/3/1 188/4/1
f 196/1/1 197/2/1 198/3/1 189/4/1
f 199/1/1 200/2/1 192/3/1 191/4/1
f 201/1/1 202/2/1 194/3/1 193/4/1
f 203/1/1 204/2/1 197/3/1 196/4/1
f 205/1/1 206/2/1 200/3/1 199/4/1
f 207/1/1 208/2/1 204/3/1 203/4/1
f 209/1/1 210/2/1 206/3/1 205/4/1
f 211/1/1 212/2/1 213/3/1 214/4/1
f 212/1/1 215/2/1 216/3/1 213/4/1
f 215/1/1 217/2/1 218/3/1 216/4/1
f 217/1/1 219/2/1 220/3/1 218/4/1
f 219/1/1 221/2/1 222/3/1 220/4/1
f 221/1/1 223/2/1 224/3/1 222/4/1
f 223/1/1 225/2/1 226/3/1 224/4/1
f 225/1/1 227/2/1 228/3/1 226/4/1
f 227/1/1 229/2/1 230/3/1 228/4/1
f 229/1/1 231/2/1 232/3/1 230/4/1
f 231/1/1 233/2/1 234/3/1 232/4/1
f 233/1/1 235/2/1 236/3/1 234/4/1
f 235/1/1 237/2/1 238/3/1 236/4/1
f 237/1/1 239/2/1 240/3/1 238/4/1
f 239/1/1 241/2/1 242/3/1 240/4/1
f 241/1/1 243/2/1 244/3/1 242/4/1
f 243/1/1 245/2/1 246/3/1 244/4/1
f 245/1/1 247/2/1 248/3/1 246/4/1
f 247/1/1 249/2/1 250/3/1 248/4/1
f 249/1/1 251/2/1 252/3/1 250/4/1
f 251/1/1 253/2/1 254/3/1 252/4/1
f 253/1/1 255/2/1 256/3/1 254/4/1
f 255/1/1 257/2/1 207/3/1 256/4/1
f 257/1/1 258/2/1 208/3/1 207/4/1
f 259/1/1 260/2/1 210/3/1 209/4/1
f 261/1/1 262/2/1 260/3/1 259/4/1
f 263/1/1 264/2/1 262/3/1 261/4/1
f 265/1/1 266/2/1 267/3/1 268/4/1
f 269/1/1 270/2/1 271/3/1 272/4/1
f 270/1/1 273/2/1 274/3/1 271/4/1
f 273/1/1 275/2/1 276/3/1 274/4/1
f 275/1/1 277/2/1 278/3/1 276/4/1
f 277/1/1 279/2/1 280/3/1 278/4/1
f 279/1/1 281/2/1 282/3/1 280/4/1
f 281/1/1 283/2/1 284/3/1 282/4/1
f 283/1/1 285/2/1 286/3/1 284/4/1
f 285/1/1 287/2/1 288/3/1 286/4/1
f 287/1/1 289/2/1 290/3/1 288/4/1
f 289/1/1 291/2/1 292/3/1 290/4/1
f 291/1/1 293/2/1 294/3/1 292/4/1
f 293/1/1 295/2/1 296/3/1 294/4/1
f 295/1/1 297/2/1 298/3/1 296/4/1
f 297/1/1 299/2/1 300/3/1 298/4/1
f 299/1/1 301/2/1 302/3/1 300/4/1
f 301/1/1 303/2/1 304/3/1 302/4/1
f 303/1/1 305/2/1 306/3/1 304/4/1
f 305/1/1 307/2/1 308/3/1 306/4/1
f 307/1/1 309/2/1 310/3/1 308/4/1
f 309/1/1 311/2/1 312/3/1 310/4/1
f 311/1/1 313/2/1 314/3/1 312/4/1
f 313/1/1 315/2/1 316/3/1 314/4/1
f 317/1/1 318/2/1 264/3/1 263/4/1
f 319/1/1 320/2/1 266/3/1 265/4/1
f 321/1/1 322/2/1 315/3/1 313/4/1
f 323/1/1 324/2/1 318/3/1 317/4/1
f 325/1/1 326/2/1 320/3/1 319/4/1
f 327/1/1 328/2/1 322/3/1 321/4/1
f 329/1/1 330/2/1 324/3/1 323/4/1
f 331/1/1 332/2/1 326/3/1 325/4/1
f 333/1/1 334/2/1 328/3/1 327/4/1
f 335/1/1 336/2/1 330/3/1 329/4/1
f 337/1/1 338/2/1 332/3/1 331/4/1
f 339/1/1 340/2/1 334/3/1 333/4/1
f 341/1/1 342/2/1 336/3/1 335/4/1
f 343/1/1 344/2/1 338/3/1 337/4/1
f 345/1/1 346/2/1 340/3/1 339/4/1
f 347/1/1 348/2/1 342/3/1 341/4/1
f 349/1/1 350/2/1 344/3/1 343/4/1
f 351/1/1 352/2/1 346/3/1 345/4/1
f 353/1/1 354/2/1 348/3/1 347/4/1
f 355/1/1 356/2/1 350/3/1 349/4/1
f 357/1/1 358/2/1 352/3/1 351/4/1
f 359/1/1 360/2/1 354/3/1 353/4/1
f 360/1/1 361/2/1 362/3/1 354/4/1
f 361/1/1 363/2/1 364/3/1 362/4/1
f 363/1/1 365/2/1 366/3/1 364/4/1
f 365/1/1 367/2/1 368/3/1 366/4/1
f 367/1/1 369/2/1 370/3/1 368/4/1
f 369/1/1 371/2/1 355/3/1 370/4/1
f 371/1/1 372/2/1 356/3/1 355/4/1
f 372/1/1 373/2/1 374/3/1 356/4/1
f 373/1/1 375/2/1 376/3/1 374/4/1
f 375/1/1 377/2/1 378/3/1 376/4/1
f 377/1/1 379/2/1 380/3/1 378/4/1
f 379/1/1 381/2/1 382/3/1 380/4/1
f 381/1/1 383/2/1 384/3/1 382/4/1
f 383/1/1 385/2/1 386/3/1 384/4/1
f 385/1/1 387/2/1 388/3/1 386/4/1
f 387/1/1 389/2/1 390/3/1 388/4/1
f 389/1/1 391/2/1 392/3/1 390/4/1
f 391/1/1 393/2/1 394/3/1 392/4/1
f 393/1/1 395/2/1 396/3/1 394/4/1
f 395/1/1 397/2/1 398/3/1 396/4/1
f 397/1/1 399/2/1 400/3/1 398/4/1
f 399/1/1 401/2/1 402/3/1 400/4/1
f 401/1/1 403/2/1 404/3/1 402/4/1
f 403/1/1 405/2/1 406/3/1 404/4/1
f 405/1/1 407/2/1 408/3/1 406/4/1
f 407/1/1 409/2/1 410/3/1 408/4/1
f 409/1/1 411/2/1 412/3/1 410/4/1
f 411/1/1 413/2/1 414/3/1 412/4/1
f 413/1/1 415/2/1 416/3/1 414/4/1
f 415/1/1 417/2/1 357/3/1 416/4/1
f 417/1/1 418/2/1 358/3/1 357/4/1

g mesh_0002
f 1/5/1 2/6/1 3/7/1 4/8/1
f 2/5/1 5/6/1 6/7/1 3/8/1
f 5/5/1 7/6/1 8/7/1 6/8/1
f 7/5/1 9/6/1 10/7/1 8/8/1
f 11/5/1 12/6/1 13/7/1 14/8/1
f 12/5/1 15/6/1 16/7/1 13/8/1
f 15/5/1 17/6/1 18/7/1 16/8/1
f 17/5/1 19/6/1 20/7/1 18/8/1
f 19/5/1 21/6/1 22/7/1 20/8/1
f 21/5/1 23/6/1 24/7/1 22/8/1
f 23/5/1 25/6/1 26/7/1 24/8/1
f 25/5/1 27/6/1 28/7/1 26/8/1
f 27/5/1 29/6/1 30/7/1 28/8/1
f 29/5/1 31/6/1 32/7/1 30/8/1
f 33/5/1 34/6/1 2/7/1 1/8/1
f 35/5/1 36/6/1 9/7/1 7/8/1
f 37/5/1 38/6/1 11/7/1 39/8/1
f 38/5/1 40/6/1 12/7/1 11/8/1
f 41/5/1 42/6/1 31/7/1 29/8/1
f 42/5/1 43/6/1 44/7/1 31/8/1
f 45/5/1 46/6/1 34/7/1 33/8/1
f 47/5/1 48/6/1 36/7/1 35/8/1
f 48/5/1 49/6/1 50/7/1 36/8/1
f 49/5/1 51/6/1 52/7/1 50/8/1
f 51/5/1 53/6/1 54/7/1 52/8/1
f 53/5/1 55/6/1 56/7/1 54/8/1
f 55/5/1 57/6/1 58/7/1 56/8/1
f 57/5/1 59/6/1 60/7/1 58/8/1
f 59/5/1 61/6/1 62/7/1 60/8/1
f 61/5/1 63/6/1 64/7/1 62/8/1
f 63/5/1 65/6/1 66/7/1 64/8/1
f 67/5/1 68/6/1 37/7/1 69/8/1
f 68/5/1 70/6/1 38/7/1 37/8/1
f 71/5/1 72/6/1 43/7/1 42/8/1
f 72/5/1 73/6/1 74/7/1 43/8/1
f 75/5/1 76/6/1 46/7/1 45/8/1
f 77/5/1 78/6/1 65/7/1 63/8/1
f 79/5/1 80/6/1 68/7/1 67/8/1
f 81/5/1 82/6/1 73/7/1 72/8/1
f 82/5/1 83/6/1 84/7/1 73/8/1
f 85/5/1 86/6/1 76/7/1 75/8/1
f 87/5/1 88/6/1 78/7/1 77/8/1
f 89/5/1 90/6/1 80/7/1 79/8/1
f 91/5/1 92/6/1 83/7/1 82/8/1
f 92/5/1 93/6/1 94/7/1 83/8/1
f 95/5/1 96/6/1 86/7/1 85/8/1
f 97/5/1 98/6/1 88/7/1 87/8/1
f 99/5/1 100/6/1 90/7/1 89/8/1
f 101/5/1 102/6/1 93/7/1 92/8/1
f 102/5/1 103/6/1 104/7/1 93/8/1
f 105/5/1 106/6/1 96/7/1 95/8/1
f 107/5/1 108/6/1 98/7/1 97/8/1
f 109/5/1 110/6/1 100/7/1 99/8/1
f 111/5/1 112/6/1 103/7/1 102/8/1
f 112/5/1 113/6/1 114/7/1 103/8/1
f 115/5/1 116/6/1 106/7/1 105/8/1
f 117/5/1 118/6/1 108/7/1 107/8/1
f 118/5/1 119/6/1 120/7/1 108/8/1
f 121/5/1 122/6/1 123/7/1 124/8/1
f 125/5/1 126/6/1 109/7/1 127/8/1
f 126/5/1 128/6/1 110/7/1 109/8/1
f 129/5/1 130/6/1 113/7/1 112/8/1
f 130/5/1 131/6/1 132/7/1 113/8/1
f 133/5/1 134/6/1 116/7/1 115/8/1
f 135/5/1 136/6/1 118/7/1 117/8/1
f 137/5/1 138/6/1 128/7/1 126/8/1
f 139/5/1 140/6/1 131/7/1 130/8/1
f 140/5/1 141/6/1 142/7/1 131/8/1
f 143/5/1 144/6/1 134/7/1 133/8/1
f 145/5/1 146/6/1 138/7/1 137/8/1
f 147/5/1 148/6/1 141/7/1 140/8/1
f 148/5/1 149/6/1 150/7/1 141/8/1
f 151/5/1 152/6/1 144/7/1 143/8/1
f 153/5/1 154/6/1 146/7/1 145/8/1
f 155/5/1 156/6/1 149/7/1 148/8/1
f 156/5/1 157/6/1 158/7/1 149/8/1
f 159/5/1 160/6/1 152/7/1 151/8/1
f 160/5/1 161/6/1 162/7/1 152/8/1
f 161/5/1 163/6/1 164/7/1 162/8/1
f 163/5/1 165/6/1 166/7/1 164/8/1
f 165/5/1 167/6/1 168/7/1 166/8/1
f 167/5/1 169/6/1 170/7/1 168/8/1
f 169/5/1 171/6/1 172/7/1 170/8/1
f 171/5/1 173/6/1 174/7/1 172/8/1
f 173/5/1 175/6/1 176/7/1 174/8/1
f 175/5/1 177/6/1 178/7/1 176/8/1
f 177/5/1 179/6/1 180/7/1 178/8/1
f 179/5/1 181/6/1 182/7/1 180/8/1
f 181/5/1 183/6/1 184/7/1 182/8/1
f 185/5/1 186/6/1 154/7/1 153/8/1
f 187/5/1 188/6/1 157/7/1 156/8/1
f 188/5/1 189/6/1 190/7/1 157/8/1
f 191/5/1 192/6/1 183/7/1 181/8/1
f 193/5/1 194/6/1 186/7/1 185/8/1
f 195/5/1 196/6/1 189/7/1 188/8/1
f 196/5/1 197/6/1 198/7/1 189/8/1
f 199/5/1 200/6/1 192/7/1 191/8/1
f 201/5/1 202/6/1 194/7/1 193/8/1
f 203/5/1 204/6/1 197/7/1 196/8/1
f 205/5/1 206/6/1 200/7/1 199/8/1
f 207/5/1 208/6/1 204/7/1 203/8/1
f 209/5/1 210/6/1 206/7/1 205/8/1
f 211/5/1 212/6/1 213/7/1 214/8/1
f 212/5/1 215/6/1 216/7/1 213/8/1
f 215/5/1 217/6/1 218/7/1 216/8/1
f 217/5/1 219/6/1 220/7/1 218/8/1
f 219/5/1 221/6/1 222/7/1 220/8/1
f 221/5/1 223/6/1 224/7/1 222/8/1
f 223/5/1 225/6/1 226/7/1 224/8/1
f 225/5/1 227/6/1 228/7/1 226/8/1
f 227/5/1 229/6/1 230/7/1 228/8/1
f 229/5/1 231/6/1 232/7/1 230/8/1
f 231/5/1 233/6/1 234/7/1 232/8/1
f 233/5/1 235/6/1 236/7/1 234/8/1
f 235/5/1 237/6/1 238/7/1 236/8/1
f 237/5/1 239/6/1 240/7/1 238/8/1
f 239/5/1 241/6/1 242/7/1 240/8/1
f 241/5/1 243/6/1 244/7/1 242/8/1
f 243/5/1 245/6/1 246/7/1 244/8/1
f 245/5/1 247/6/1 248/7/1 246/8/1
f 247/5/1 249/6/1 250/7/1 248/8/1
f 249/5/1 251/6/1 252/7/1 250/8/1
f 251/5/1 253/6/1 254/7/1 252/8/1
f 253/5/1 255/6/1 256/7/1 254/8/1
f 255/5/1 257/6/1 207/7/1 256/8/1
f 257/5/1 258/6/1 208/7/1 207/8/1
f 259/5/1 260/6/1 210/7/1 209/8/1
f 261/5/1 262/6/1 260/7/1 259/8/1
f 263/5/1 264/6/1 262/7/1 261/8/1
f 265/5/1 266/6/1 267/7/1 268/8/1
f 269/5/1 270/6/1 271/7/1 272/8/1
f 270/5/1 273/6/1 274/7/1 271/8/1
f 273/5/1 275/6/1 276/7/1 274/8/1
f 275/5/1 277/6/1 278/7/1 276/8/1
f 277/5/1 279/6/1 280/7/1 278/8/1
f 279/5/1 281/6/1 282/7/1 280/8/1
f 281/5/1 283/6/1 284/7/1 282/8/1
f 283/5/1 285/6/1 286/7/1 284/8/1
f 285/5/1 287/6/1 288/7/1 286/8/1
f 287/5/1 289/6/1 290/7/1 288/8/1
f 289/5/1 291/6/1 292/7/1 290/8/1
f 291/5/1 293/6/1 294/7/1 292/8/1
f 293/5/1 295/6/1 296/7/1 294/8/1
f 295/5/1 297/6/1 298/7/1 296/8/1
f 297/5/1 299/6/1 300/7/1 298/8/1
f 299/5/1 301/6/1 302/7/1 300/8/1
f 301/5/1 303/6/1 304/7/1 302/8/1
f 303/5/1 305/6/1 306/7/1 304/8/1
f 305/5/1 307/6/1 308/7/1 306/8/1
f 307/5/1 309/6/1 310/7/1 308/8/1
f 309/5/1 311/6/1 312/7/1 310/8/1
f 311/5/1 313/6/1 314/7/1 312/8/1
f 313/5/1 315/6/1 316/7/1 314/8/1
f 317/5/1 318/6/1 264/7/1 263/8/1
f 319/5/1 320/6/1 266/7/1 265/8/1
f 321/5/1 322/6/1 315/7/1 313/8/1
f 323/5/1 324/6/1 318/7/1 317/8/1
f 325/5/1 326/6/1 320/7/1 319/8/1
f 327/5/1 328/6/1 322/7/1 321/8/1
f 329/5/1 330/6/1 324/7/1 323/8/1
f 331/5/1 332/6/1 326/7/1 325/8/1
f 333/5/1 334/6/1 328/7/1 327/8/1
f 335/5/1 336/6/1 330/7/1 329/8/1
f 337/5/1 338/6/1 332/7/1 331/8/1
f 339/5/1 340/6/1 334/7/1 333/8/1
f 341/5/1 342/6/1 336/7/1 335/8/1
f 343/5/1 344/6/1 338/7/1 337/8/1
f 345/5/1 346/6/1 340/7/1 339/8/1
f 347/5/1 348/6/1 342/7/1 341/8/1
f 349/5/1 350/6/1 344/7/1 343/8/1
f 351/5/1 352/6/1 346/7/1 345/8/1
f 353/5/1 354/6/1 348/7/1 347/8/1
f 355/5/1 356/6/1 350/7/1 349/8/1
f 357/5/1 358/6/1 352/7/1 351/8/1
f 359/5/1 360/6/1 354/7/1 353/8/1
f 360/5/1 361/6/1 362/7/1 354/8/1
f 361/5/1 363/6/1 364/7/1 362/8/1
f 363/5/1 365/6/1 366/7/1 364/8/1
f 365/5/1 367/6/1 368/7/1 366/8/1
f 367/5/1 369/6/1 370/7/1 368/8/1
f 369/5/1 371/6/1 355/7/1 370/8/1
f 371/5/1 372/6/1 356/7/1 355/8/1
f 372/5/1 373/6/1 374/7/1 356/8/1
f 373/5/1 375/6/1 376/7/1 374/8/1
f 375/5/1 377/6/1 378/7/1 376/8/1
f 377/5/1 379/6/1 380/7/1 378/8/1
f 379/5/1 381/6/1 382/7/1 380/8/1
f 381/5/1 383/6/1 384/7/1 382/8/1
f 383/5/1 385/6/1 386/7/1 384/8/1
f 385/5/1 387/6/1 388/7/1 386/8/1
f 387/5/1 389/6/1 390/7/1 388/8/1
f 389/5/1 391/6/1 392/7/1 390/8/1
f 391/5/1 393/6/1 394/7/1 392/8/1
f 393/5/1 395/6/1 396/7/1 394/8/1
f 395/5/1 397/6/1 398/7/1 396/8/1
f 397/5/1 399/6/1 400/7/1 398/8/1
f 399/5/1 401/6/1 402/7/1 400/8/1
f 401/5/1 403/6/1 404/7/1 402/8/1
f 403/5/1 405/6/1 406/7/1 404/8/1
f 405/5/1 407/6/1 408/7/1 406/8/1
f 407/5/1 409/6/1 410/7/1 408/8/1
f 409/5/1 411/6/1 412/7/1 410/8/1
f 411/5/1 413/6/1 414/7/1 412/8/1
f 413/5/1 415/6/1 416/7/1 414/8/1
f 415/5/1 417/6/1 357/7/1 416/8/1
f 417/5/1 418/6/1 358/7/1 357/8/1

