# Wavefront OBJ file automatically generated by Tiled2Unity

# Vertices (Count = 545)
v -16 -288 0
v -32 -288 0
v -32 -272 0
v -16 -272 0
v -48 -288 0
v -48 -272 0
v -64 -288 0
v -64 -272 0
v -80 -288 0
v -80 -272 0
v -96 -288 0
v -96 -272 0
v -112 -288 0
v -112 -272 0
v -128 -288 0
v -128 -272 0
v -144 -288 0
v -144 -272 0
v -160 -288 0
v -160 -272 0
v -176 -288 0
v -176 -272 0
v -192 -288 0
v -192 -272 0
v -16 -448 0
v -32 -448 0
v -32 -432 0
v -16 -432 0
v -48 -448 0
v -48 -432 0
v -64 -448 0
v -64 -432 0
v -80 -448 0
v -80 -432 0
v -96 -448 0
v -96 -432 0
v -112 -448 0
v -112 -432 0
v -128 -448 0
v -128 -432 0
v -144 -448 0
v -144 -432 0
v -160 -448 0
v -160 -432 0
v -176 -448 0
v -192 -448 0
v -192 -432 0
v -176 -432 0
v -224 -464 0
v -240 -464 0
v -240 -448 0
v -224 -448 0
v -256 -464 0
v -256 -448 0
v -272 -464 0
v -272 -448 0
v -288 -464 0
v -288 -448 0
v -304 -464 0
v -304 -448 0
v -320 -464 0
v -320 -448 0
v -336 -464 0
v -336 -448 0
v -352 -464 0
v -352 -448 0
v -368 -464 0
v -368 -448 0
v -384 -464 0
v -384 -448 0
v -400 -464 0
v -400 -448 0
v -416 -464 0
v -416 -448 0
v -432 -464 0
v -432 -448 0
v -448 -464 0
v -448 -448 0
v -224 -480 0
v -240 -480 0
v -256 -480 0
v -272 -480 0
v -288 -480 0
v -304 -480 0
v -320 -480 0
v -336 -480 0
v -352 -480 0
v -368 -480 0
v -384 -480 0
v -400 -480 0
v -416 -480 0
v -432 -480 0
v -448 -480 0
v 0 -496 0
v -16 -496 0
v -16 -480 0
v 0 -480 0
v -32 -496 0
v -32 -480 0
v -48 -496 0
v -48 -480 0
v -64 -496 0
v -64 -480 0
v -80 -496 0
v -80 -480 0
v -96 -496 0
v -96 -480 0
v -112 -496 0
v -112 -480 0
v -128 -496 0
v -128 -480 0
v -144 -496 0
v -144 -480 0
v -160 -496 0
v -160 -480 0
v -176 -496 0
v -176 -480 0
v -192 -496 0
v -192 -480 0
v -224 -496 0
v -240 -496 0
v -432 -496 0
v -448 -496 0
v 0 -512 0
v -16 -512 0
v -176 -512 0
v -192 -512 0
v -224 -512 0
v -240 -512 0
v -432 -512 0
v -448 -512 0
v 0 -528 0
v -16 -528 0
v -176 -528 0
v -192 -528 0
v -224 -528 0
v -240 -528 0
v -432 -528 0
v -448 -528 0
v 0 -544 0
v -16 -544 0
v -176 -544 0
v -192 -544 0
v -224 -544 0
v -240 -544 0
v -432 -544 0
v -448 -544 0
v 0 -560 0
v -16 -560 0
v -176 -560 0
v -192 -560 0
v -224 -560 0
v -240 -560 0
v -432 -560 0
v -448 -560 0
v 0 -576 0
v -16 -576 0
v -176 -576 0
v -192 -576 0
v -224 -576 0
v -240 -576 0
v -432 -576 0
v -448 -576 0
v 0 -592 0
v -16 -592 0
v -176 -592 0
v -192 -592 0
v -224 -592 0
v -240 -592 0
v -432 -592 0
v -448 -592 0
v 0 -608 0
v -16 -608 0
v -176 -608 0
v -192 -608 0
v -224 -608 0
v -240 -608 0
v -432 -608 0
v -448 -608 0
v 0 -624 0
v -16 -624 0
v -432 -624 0
v -448 -624 0
v 0 -640 0
v -16 -640 0
v -224 -640 0
v -240 -640 0
v -240 -624 0
v -224 -624 0
v -256 -640 0
v -256 -624 0
v -272 -640 0
v -272 -624 0
v -288 -640 0
v -288 -624 0
v -304 -640 0
v -304 -624 0
v -320 -640 0
v -320 -624 0
v -336 -640 0
v -336 -624 0
v -352 -640 0
v -352 -624 0
v -368 -640 0
v -368 -624 0
v -384 -640 0
v -384 -624 0
v -400 -640 0
v -400 -624 0
v -416 -640 0
v -416 -624 0
v -432 -640 0
v -448 -640 0
v 0 -656 0
v -16 -656 0
v -32 -656 0
v -32 -640 0
v -48 -656 0
v -48 -640 0
v -64 -656 0
v -64 -640 0
v -80 -656 0
v -80 -640 0
v -96 -656 0
v -96 -640 0
v -112 -656 0
v -112 -640 0
v -128 -656 0
v -128 -640 0
v -144 -656 0
v -144 -640 0
v -160 -656 0
v -160 -640 0
v -176 -656 0
v -176 -640 0
v -192 -656 0
v -192 -640 0
v -224 -656 0
v -240 -656 0
v -256 -656 0
v -272 -656 0
v -288 -656 0
v -304 -656 0
v -320 -656 0
v -336 -656 0
v -352 -656 0
v -368 -656 0
v -384 -656 0
v -400 -656 0
v -416 -656 0
v -432 -656 0
v -448 -656 0
v 0 -688 0
v -16 -688 0
v -16 -672 0
v 0 -672 0
v -32 -688 0
v -32 -672 0
v -48 -688 0
v -48 -672 0
v -64 -688 0
v -64 -672 0
v -80 -688 0
v -80 -672 0
v -96 -688 0
v -96 -672 0
v -112 -688 0
v -112 -672 0
v -128 -688 0
v -128 -672 0
v -144 -688 0
v -144 -672 0
v -160 -688 0
v -160 -672 0
v -176 -688 0
v -176 -672 0
v -192 -688 0
v -192 -672 0
v -208 -688 0
v -224 -688 0
v -224 -672 0
v -208 -672 0
v -240 -688 0
v -256 -688 0
v -256 -672 0
v -240 -672 0
v -272 -688 0
v -272 -672 0
v -288 -688 0
v -288 -672 0
v -304 -688 0
v -304 -672 0
v -320 -688 0
v -320 -672 0
v -336 -688 0
v -336 -672 0
v -352 -688 0
v -352 -672 0
v -368 -688 0
v -368 -672 0
v -384 -688 0
v -384 -672 0
v -400 -688 0
v -400 -672 0
v -416 -688 0
v -416 -672 0
v -432 -688 0
v -432 -672 0
v -448 -688 0
v -448 -672 0
v 0 -704 0
v -16 -704 0
v -208 -704 0
v -224 -704 0
v -240 -704 0
v -256 -704 0
v -272 -704 0
v -288 -704 0
v -304 -704 0
v -320 -704 0
v -336 -704 0
v -352 -704 0
v -368 -704 0
v -384 -704 0
v -400 -704 0
v -416 -704 0
v -432 -704 0
v -448 -704 0
v 0 -720 0
v -16 -720 0
v -208 -720 0
v -224 -720 0
v 0 -736 0
v -16 -736 0
v -208 -736 0
v -224 -736 0
v -240 -736 0
v -256 -736 0
v -256 -720 0
v -240 -720 0
v -432 -736 0
v -448 -736 0
v -448 -720 0
v -432 -720 0
v 0 -752 0
v -16 -752 0
v -208 -752 0
v -224 -752 0
v -240 -752 0
v -256 -752 0
v -432 -752 0
v -448 -752 0
v 0 -768 0
v -16 -768 0
v -208 -768 0
v -224 -768 0
v -240 -768 0
v -256 -768 0
v -432 -768 0
v -448 -768 0
v 0 -784 0
v -16 -784 0
v -208 -784 0
v -224 -784 0
v -240 -784 0
v -256 -784 0
v -432 -784 0
v -448 -784 0
v 0 -800 0
v -16 -800 0
v -208 -800 0
v -224 -800 0
v -240 -800 0
v -256 -800 0
v -432 -800 0
v -448 -800 0
v 0 -816 0
v -16 -816 0
v -208 -816 0
v -224 -816 0
v -240 -816 0
v -256 -816 0
v -432 -816 0
v -448 -816 0
v 0 -832 0
v -16 -832 0
v -208 -832 0
v -224 -832 0
v -240 -832 0
v -256 -832 0
v -432 -832 0
v -448 -832 0
v 0 -848 0
v -16 -848 0
v -208 -848 0
v -224 -848 0
v -432 -848 0
v -448 -848 0
v 0 -864 0
v -16 -864 0
v -240 -864 0
v -256 -864 0
v -256 -848 0
v -240 -848 0
v -272 -864 0
v -272 -848 0
v -288 -864 0
v -288 -848 0
v -304 -864 0
v -304 -848 0
v -320 -864 0
v -320 -848 0
v -336 -864 0
v -336 -848 0
v -352 -864 0
v -352 -848 0
v -368 -864 0
v -368 -848 0
v -384 -864 0
v -384 -848 0
v -400 -864 0
v -400 -848 0
v -416 -864 0
v -416 -848 0
v -432 -864 0
v -448 -864 0
v 0 -880 0
v -16 -880 0
v -32 -880 0
v -32 -864 0
v -48 -880 0
v -48 -864 0
v -64 -880 0
v -64 -864 0
v -80 -880 0
v -80 -864 0
v -96 -880 0
v -96 -864 0
v -112 -880 0
v -112 -864 0
v -128 -880 0
v -128 -864 0
v -144 -880 0
v -144 -864 0
v -160 -880 0
v -160 -864 0
v -176 -880 0
v -176 -864 0
v -192 -880 0
v -192 -864 0
v -208 -880 0
v -208 -864 0
v -224 -880 0
v -224 -864 0
v -240 -880 0
v -256 -880 0
v -272 -880 0
v -288 -880 0
v -304 -880 0
v -320 -880 0
v -336 -880 0
v -352 -880 0
v -368 -880 0
v -384 -880 0
v -400 -880 0
v -416 -880 0
v -432 -880 0
v -448 -880 0
v 0 -304 0
v -16 -304 0
v 0 -288 0
v -176 -304 0
v -192 -304 0
v 0 -320 0
v -16 -320 0
v -176 -320 0
v -192 -320 0
v 0 -336 0
v -16 -336 0
v -176 -336 0
v -192 -336 0
v 0 -352 0
v -16 -352 0
v -176 -352 0
v -192 -352 0
v 0 -368 0
v -16 -368 0
v -176 -368 0
v -192 -368 0
v 0 -384 0
v -16 -384 0
v -176 -384 0
v -192 -384 0
v 0 -400 0
v -16 -400 0
v -176 -400 0
v -192 -400 0
v 0 -416 0
v -16 -416 0
v -176 -416 0
v -192 -416 0
v 0 -432 0
v -32 -304 0
v -208 -304 0
v -208 -288 0
v -32 -320 0
v -208 -320 0
v -32 -336 0
v -208 -336 0
v -32 -352 0
v -208 -352 0
v -32 -368 0
v -208 -368 0
v -32 -384 0
v -208 -384 0
v -32 -400 0
v -208 -400 0
v -32 -416 0
v -208 -416 0
v -208 -432 0
v 0 -488 0
v -16 -488 0
v -32 -488 0
v -48 -488 0
v -64 -488 0
v -80 -488 0
v -96 -488 0
v -112 -488 0
v -128 -488 0
v -144 -488 0
v -160 -488 0
v -176 -488 0
v -192 -488 0
v -16 -648 0
v -32 -648 0
v -48 -648 0
v -64 -648 0
v -80 -648 0
v -96 -648 0
v -112 -648 0
v -128 -648 0
v -144 -648 0
v -160 -648 0
v -176 -648 0
v -192 -648 0

# Texture cooridinates (Count = 26)
vt 0.3751221 0.6251221
vt 0.4373779 0.6251221
vt 0.4373779 0.7498779
vt 0.3751221 0.7498779
vt 0.1251221 0.3751221
vt 0.1873779 0.3751221
vt 0.1873779 0.4998779
vt 0.1251221 0.4998779
vt 0.3751221 0.5001221
vt 0.4373779 0.5001221
vt 0.4373779 0.6248779
vt 0.3751221 0.6248779
vt 0.6251221 0.5626221
vt 0.7498779 0.5626221
vt 0.7498779 0.6248779
vt 0.6251221 0.6248779
vt 0.6251221 0.5001221
vt 0.7498779 0.5001221
vt 0.7498779 0.5623779
vt 0.6251221 0.5623779
vt 0.2501221 0.4376221
vt 0.3748779 0.4376221
vt 0.3748779 0.4998779
vt 0.2501221 0.4998779
vt 0.3751221 0.6876221
vt 0.4373779 0.6876221

# Normal
vn 0 0 -1

# Groups (Count = 1)

g mesh_0001
f 1/1/1 2/2/1 3/3/1 4/4/1
f 2/1/1 5/2/1 6/3/1 3/4/1
f 5/1/1 7/2/1 8/3/1 6/4/1
f 7/1/1 9/2/1 10/3/1 8/4/1
f 9/1/1 11/2/1 12/3/1 10/4/1
f 11/1/1 13/2/1 14/3/1 12/4/1
f 13/1/1 15/2/1 16/3/1 14/4/1
f 15/1/1 17/2/1 18/3/1 16/4/1
f 17/1/1 19/2/1 20/3/1 18/4/1
f 19/1/1 21/2/1 22/3/1 20/4/1
f 21/1/1 23/2/1 24/3/1 22/4/1
f 25/1/1 26/2/1 27/3/1 28/4/1
f 26/1/1 29/2/1 30/3/1 27/4/1
f 29/1/1 31/2/1 32/3/1 30/4/1
f 31/1/1 33/2/1 34/3/1 32/4/1
f 33/1/1 35/2/1 36/3/1 34/4/1
f 35/1/1 37/2/1 38/3/1 36/4/1
f 37/1/1 39/2/1 40/3/1 38/4/1
f 39/1/1 41/2/1 42/3/1 40/4/1
f 41/1/1 43/2/1 44/3/1 42/4/1
f 45/1/1 46/2/1 47/3/1 48/4/1
f 49/5/1 50/6/1 51/7/1 52/8/1
f 50/5/1 53/6/1 54/7/1 51/8/1
f 53/5/1 55/6/1 56/7/1 54/8/1
f 55/5/1 57/6/1 58/7/1 56/8/1
f 57/5/1 59/6/1 60/7/1 58/8/1
f 59/5/1 61/6/1 62/7/1 60/8/1
f 61/5/1 63/6/1 64/7/1 62/8/1
f 63/5/1 65/6/1 66/7/1 64/8/1
f 65/5/1 67/6/1 68/7/1 66/8/1
f 67/5/1 69/6/1 70/7/1 68/8/1
f 69/5/1 71/6/1 72/7/1 70/8/1
f 71/5/1 73/6/1 74/7/1 72/8/1
f 73/5/1 75/6/1 76/7/1 74/8/1
f 75/5/1 77/6/1 78/7/1 76/8/1
f 79/5/1 80/6/1 50/7/1 49/8/1
f 80/9/1 81/10/1 53/11/1 50/12/1
f 81/9/1 82/10/1 55/11/1 53/12/1
f 82/9/1 83/10/1 57/11/1 55/12/1
f 83/9/1 84/10/1 59/11/1 57/12/1
f 84/9/1 85/10/1 61/11/1 59/12/1
f 85/9/1 86/10/1 63/11/1 61/12/1
f 86/9/1 87/10/1 65/11/1 63/12/1
f 87/9/1 88/10/1 67/11/1 65/12/1
f 88/9/1 89/10/1 69/11/1 67/12/1
f 89/9/1 90/10/1 71/11/1 69/12/1
f 90/9/1 91/10/1 73/11/1 71/12/1
f 91/9/1 92/10/1 75/11/1 73/12/1
f 92/5/1 93/6/1 77/7/1 75/8/1
f 94/9/1 95/10/1 96/11/1 97/12/1
f 95/9/1 98/10/1 99/11/1 96/12/1
f 98/9/1 100/10/1 101/11/1 99/12/1
f 100/9/1 102/10/1 103/11/1 101/12/1
f 102/9/1 104/10/1 105/11/1 103/12/1
f 104/9/1 106/10/1 107/11/1 105/12/1
f 106/9/1 108/10/1 109/11/1 107/12/1
f 108/9/1 110/10/1 111/11/1 109/12/1
f 110/9/1 112/10/1 113/11/1 111/12/1
f 112/9/1 114/10/1 115/11/1 113/12/1
f 114/9/1 116/10/1 117/11/1 115/12/1
f 116/9/1 118/10/1 119/11/1 117/12/1
f 120/5/1 121/6/1 80/7/1 79/8/1
f 122/5/1 123/6/1 93/7/1 92/8/1
f 124/9/1 125/10/1 95/11/1 94/12/1
f 126/1/1 127/2/1 118/3/1 116/4/1
f 128/5/1 129/6/1 121/7/1 120/8/1
f 130/5/1 131/6/1 123/7/1 122/8/1
f 132/9/1 133/10/1 125/11/1 124/12/1
f 134/1/1 135/2/1 127/3/1 126/4/1
f 136/5/1 137/6/1 129/7/1 128/8/1
f 138/5/1 139/6/1 131/7/1 130/8/1
f 140/9/1 141/10/1 133/11/1 132/12/1
f 142/1/1 143/2/1 135/3/1 134/4/1
f 144/5/1 145/6/1 137/7/1 136/8/1
f 146/5/1 147/6/1 139/7/1 138/8/1
f 148/9/1 149/10/1 141/11/1 140/12/1
f 150/1/1 151/2/1 143/3/1 142/4/1
f 152/5/1 153/6/1 145/7/1 144/8/1
f 154/5/1 155/6/1 147/7/1 146/8/1
f 156/9/1 157/10/1 149/11/1 148/12/1
f 158/1/1 159/2/1 151/3/1 150/4/1
f 160/5/1 161/6/1 153/7/1 152/8/1
f 162/5/1 163/6/1 155/7/1 154/8/1
f 164/9/1 165/10/1 157/11/1 156/12/1
f 166/1/1 167/2/1 159/3/1 158/4/1
f 168/5/1 169/6/1 161/7/1 160/8/1
f 170/5/1 171/6/1 163/7/1 162/8/1
f 172/9/1 173/10/1 165/11/1 164/12/1
f 174/1/1 175/2/1 167/3/1 166/4/1
f 176/9/1 177/10/1 169/11/1 168/12/1
f 178/5/1 179/6/1 171/7/1 170/8/1
f 180/9/1 181/10/1 173/11/1 172/12/1
f 182/5/1 183/6/1 179/7/1 178/8/1
f 184/9/1 185/10/1 181/11/1 180/12/1
f 186/5/1 187/6/1 188/7/1 189/8/1
f 187/5/1 190/6/1 191/7/1 188/8/1
f 190/5/1 192/6/1 193/7/1 191/8/1
f 192/5/1 194/6/1 195/7/1 193/8/1
f 194/5/1 196/6/1 197/7/1 195/8/1
f 196/5/1 198/6/1 199/7/1 197/8/1
f 198/5/1 200/6/1 201/7/1 199/8/1
f 200/5/1 202/6/1 203/7/1 201/8/1
f 202/5/1 204/6/1 205/7/1 203/8/1
f 204/5/1 206/6/1 207/7/1 205/8/1
f 206/5/1 208/6/1 209/7/1 207/8/1
f 208/5/1 210/6/1 211/7/1 209/8/1
f 210/5/1 212/6/1 182/7/1 211/8/1
f 212/5/1 213/6/1 183/7/1 182/8/1
f 214/9/1 215/10/1 185/11/1 184/12/1
f 215/9/1 216/10/1 217/11/1 185/12/1
f 216/9/1 218/10/1 219/11/1 217/12/1
f 218/9/1 220/10/1 221/11/1 219/12/1
f 220/9/1 222/10/1 223/11/1 221/12/1
f 222/9/1 224/10/1 225/11/1 223/12/1
f 224/9/1 226/10/1 227/11/1 225/12/1
f 226/9/1 228/10/1 229/11/1 227/12/1
f 228/9/1 230/10/1 231/11/1 229/12/1
f 230/9/1 232/10/1 233/11/1 231/12/1
f 232/9/1 234/10/1 235/11/1 233/12/1
f 234/9/1 236/10/1 237/11/1 235/12/1
f 238/9/1 239/10/1 187/11/1 186/12/1
f 239/9/1 240/10/1 190/11/1 187/12/1
f 240/9/1 241/10/1 192/11/1 190/12/1
f 241/9/1 242/10/1 194/11/1 192/12/1
f 242/9/1 243/10/1 196/11/1 194/12/1
f 243/9/1 244/10/1 198/11/1 196/12/1
f 244/9/1 245/10/1 200/11/1 198/12/1
f 245/9/1 246/10/1 202/11/1 200/12/1
f 246/9/1 247/10/1 204/11/1 202/12/1
f 247/9/1 248/10/1 206/11/1 204/12/1
f 248/9/1 249/10/1 208/11/1 206/12/1
f 249/9/1 250/10/1 210/11/1 208/12/1
f 250/9/1 251/10/1 212/11/1 210/12/1
f 251/9/1 252/10/1 213/11/1 212/12/1
f 253/1/1 254/2/1 255/3/1 256/4/1
f 254/1/1 257/2/1 258/3/1 255/4/1
f 257/1/1 259/2/1 260/3/1 258/4/1
f 259/1/1 261/2/1 262/3/1 260/4/1
f 261/1/1 263/2/1 264/3/1 262/4/1
f 263/1/1 265/2/1 266/3/1 264/4/1
f 265/1/1 267/2/1 268/3/1 266/4/1
f 267/1/1 269/2/1 270/3/1 268/4/1
f 269/1/1 271/2/1 272/3/1 270/4/1
f 271/1/1 273/2/1 274/3/1 272/4/1
f 273/1/1 275/2/1 276/3/1 274/4/1
f 275/1/1 277/2/1 278/3/1 276/4/1
f 279/1/1 280/2/1 281/3/1 282/4/1
f 283/1/1 284/2/1 285/3/1 286/4/1
f 284/1/1 287/2/1 288/3/1 285/4/1
f 287/1/1 289/2/1 290/3/1 288/4/1
f 289/1/1 291/2/1 292/3/1 290/4/1
f 291/1/1 293/2/1 294/3/1 292/4/1
f 293/1/1 295/2/1 296/3/1 294/4/1
f 295/1/1 297/2/1 298/3/1 296/4/1
f 297/1/1 299/2/1 300/3/1 298/4/1
f 299/1/1 301/2/1 302/3/1 300/4/1
f 301/1/1 303/2/1 304/3/1 302/4/1
f 303/1/1 305/2/1 306/3/1 304/4/1
f 305/1/1 307/2/1 308/3/1 306/4/1
f 307/1/1 309/2/1 310/3/1 308/4/1
f 311/1/1 312/2/1 254/3/1 253/4/1
f 313/1/1 314/2/1 280/3/1 279/4/1
f 315/1/1 316/2/1 284/3/1 283/4/1
f 316/9/1 317/10/1 287/11/1 284/12/1
f 317/9/1 318/10/1 289/11/1 287/12/1
f 318/9/1 319/10/1 291/11/1 289/12/1
f 319/9/1 320/10/1 293/11/1 291/12/1
f 320/9/1 321/10/1 295/11/1 293/12/1
f 321/9/1 322/10/1 297/11/1 295/12/1
f 322/9/1 323/10/1 299/11/1 297/12/1
f 323/9/1 324/10/1 301/11/1 299/12/1
f 324/9/1 325/10/1 303/11/1 301/12/1
f 325/9/1 326/10/1 305/11/1 303/12/1
f 326/9/1 327/10/1 307/11/1 305/12/1
f 327/1/1 328/2/1 309/3/1 307/4/1
f 329/1/1 330/2/1 312/3/1 311/4/1
f 331/1/1 332/2/1 314/3/1 313/4/1
f 333/1/1 334/2/1 330/3/1 329/4/1
f 335/1/1 336/2/1 332/3/1 331/4/1
f 337/1/1 338/2/1 339/3/1 340/4/1
f 341/1/1 342/2/1 343/3/1 344/4/1
f 345/1/1 346/2/1 334/3/1 333/4/1
f 347/1/1 348/2/1 336/3/1 335/4/1
f 349/1/1 350/2/1 338/3/1 337/4/1
f 351/1/1 352/2/1 342/3/1 341/4/1
f 353/1/1 354/2/1 346/3/1 345/4/1
f 355/1/1 356/2/1 348/3/1 347/4/1
f 357/1/1 358/2/1 350/3/1 349/4/1
f 359/1/1 360/2/1 352/3/1 351/4/1
f 361/1/1 362/2/1 354/3/1 353/4/1
f 363/1/1 364/2/1 356/3/1 355/4/1
f 365/1/1 366/2/1 358/3/1 357/4/1
f 367/1/1 368/2/1 360/3/1 359/4/1
f 369/1/1 370/2/1 362/3/1 361/4/1
f 371/1/1 372/2/1 364/3/1 363/4/1
f 373/1/1 374/2/1 366/3/1 365/4/1
f 375/1/1 376/2/1 368/3/1 367/4/1
f 377/1/1 378/2/1 370/3/1 369/4/1
f 379/1/1 380/2/1 372/3/1 371/4/1
f 381/1/1 382/2/1 374/3/1 373/4/1
f 383/1/1 384/2/1 376/3/1 375/4/1
f 385/1/1 386/2/1 378/3/1 377/4/1
f 387/1/1 388/2/1 380/3/1 379/4/1
f 389/1/1 390/2/1 382/3/1 381/4/1
f 391/1/1 392/2/1 384/3/1 383/4/1
f 393/1/1 394/2/1 386/3/1 385/4/1
f 395/1/1 396/2/1 388/3/1 387/4/1
f 397/1/1 398/2/1 392/3/1 391/4/1
f 399/1/1 400/2/1 394/3/1 393/4/1
f 401/1/1 402/2/1 403/3/1 404/4/1
f 402/1/1 405/2/1 406/3/1 403/4/1
f 405/1/1 407/2/1 408/3/1 406/4/1
f 407/1/1 409/2/1 410/3/1 408/4/1
f 409/1/1 411/2/1 412/3/1 410/4/1
f 411/1/1 413/2/1 414/3/1 412/4/1
f 413/1/1 415/2/1 416/3/1 414/4/1
f 415/1/1 417/2/1 418/3/1 416/4/1
f 417/1/1 419/2/1 420/3/1 418/4/1
f 419/1/1 421/2/1 422/3/1 420/4/1
f 421/1/1 423/2/1 424/3/1 422/4/1
f 423/1/1 425/2/1 397/3/1 424/4/1
f 425/1/1 426/2/1 398/3/1 397/4/1
f 427/1/1 428/2/1 400/3/1 399/4/1
f 428/1/1 429/2/1 430/3/1 400/4/1
f 429/1/1 431/2/1 432/3/1 430/4/1
f 431/1/1 433/2/1 434/3/1 432/4/1
f 433/1/1 435/2/1 436/3/1 434/4/1
f 435/1/1 437/2/1 438/3/1 436/4/1
f 437/1/1 439/2/1 440/3/1 438/4/1
f 439/1/1 441/2/1 442/3/1 440/4/1
f 441/1/1 443/2/1 444/3/1 442/4/1
f 443/1/1 445/2/1 446/3/1 444/4/1
f 445/1/1 447/2/1 448/3/1 446/4/1
f 447/1/1 449/2/1 450/3/1 448/4/1
f 449/1/1 451/2/1 452/3/1 450/4/1
f 451/1/1 453/2/1 454/3/1 452/4/1
f 455/9/1 456/10/1 402/11/1 401/12/1
f 456/9/1 457/10/1 405/11/1 402/12/1
f 457/9/1 458/10/1 407/11/1 405/12/1
f 458/9/1 459/10/1 409/11/1 407/12/1
f 459/9/1 460/10/1 411/11/1 409/12/1
f 460/9/1 461/10/1 413/11/1 411/12/1
f 461/9/1 462/10/1 415/11/1 413/12/1
f 462/9/1 463/10/1 417/11/1 415/12/1
f 463/9/1 464/10/1 419/11/1 417/12/1
f 464/9/1 465/10/1 421/11/1 419/12/1
f 465/9/1 466/10/1 423/11/1 421/12/1
f 466/9/1 467/10/1 425/11/1 423/12/1
f 467/9/1 468/10/1 426/11/1 425/12/1

g mesh_0002
f 469/13/1 470/14/1 1/15/1 471/16/1
f 472/13/1 473/14/1 23/15/1 21/16/1
f 474/13/1 475/14/1 470/15/1 469/16/1
f 476/17/1 477/18/1 473/19/1 472/20/1
f 478/13/1 479/14/1 475/15/1 474/16/1
f 480/17/1 481/18/1 477/19/1 476/20/1
f 482/13/1 483/14/1 479/15/1 478/16/1
f 484/17/1 485/18/1 481/19/1 480/20/1
f 486/13/1 487/14/1 483/15/1 482/16/1
f 488/17/1 489/18/1 485/19/1 484/20/1
f 490/13/1 491/14/1 487/15/1 486/16/1
f 492/17/1 493/18/1 489/19/1 488/20/1
f 494/13/1 495/14/1 491/15/1 490/16/1
f 496/17/1 497/18/1 493/19/1 492/20/1
f 498/13/1 499/14/1 495/15/1 494/16/1
f 500/17/1 501/18/1 497/19/1 496/20/1
f 502/13/1 28/14/1 499/15/1 498/16/1
f 48/17/1 47/18/1 501/19/1 500/20/1

g mesh_0003
f 470/21/1 503/22/1 2/23/1 1/24/1
f 473/21/1 504/22/1 505/23/1 23/24/1
f 475/21/1 506/22/1 503/23/1 470/24/1
f 477/21/1 507/22/1 504/23/1 473/24/1
f 479/21/1 508/22/1 506/23/1 475/24/1
f 481/21/1 509/22/1 507/23/1 477/24/1
f 483/21/1 510/22/1 508/23/1 479/24/1
f 485/21/1 511/22/1 509/23/1 481/24/1
f 487/21/1 512/22/1 510/23/1 483/24/1
f 489/21/1 513/22/1 511/23/1 485/24/1
f 491/21/1 514/22/1 512/23/1 487/24/1
f 493/21/1 515/22/1 513/23/1 489/24/1
f 495/21/1 516/22/1 514/23/1 491/24/1
f 497/21/1 517/22/1 515/23/1 493/24/1
f 499/21/1 518/22/1 516/23/1 495/24/1
f 501/21/1 519/22/1 517/23/1 497/24/1
f 28/21/1 27/22/1 518/23/1 499/24/1
f 47/21/1 520/22/1 519/23/1 501/24/1

g mesh_0004
f 521/25/1 522/26/1 96/3/1 97/4/1
f 522/25/1 523/26/1 99/3/1 96/4/1
f 523/25/1 524/26/1 101/3/1 99/4/1
f 524/25/1 525/26/1 103/3/1 101/4/1
f 525/25/1 526/26/1 105/3/1 103/4/1
f 526/25/1 527/26/1 107/3/1 105/4/1
f 527/25/1 528/26/1 109/3/1 107/4/1
f 528/25/1 529/26/1 111/3/1 109/4/1
f 529/25/1 530/26/1 113/3/1 111/4/1
f 530/25/1 531/26/1 115/3/1 113/4/1
f 531/25/1 532/26/1 117/3/1 115/4/1
f 532/25/1 533/26/1 119/3/1 117/4/1
f 534/25/1 535/26/1 217/3/1 185/4/1
f 535/25/1 536/26/1 219/3/1 217/4/1
f 536/25/1 537/26/1 221/3/1 219/4/1
f 537/25/1 538/26/1 223/3/1 221/4/1
f 538/25/1 539/26/1 225/3/1 223/4/1
f 539/25/1 540/26/1 227/3/1 225/4/1
f 540/25/1 541/26/1 229/3/1 227/4/1
f 541/25/1 542/26/1 231/3/1 229/4/1
f 542/25/1 543/26/1 233/3/1 231/4/1
f 543/25/1 544/26/1 235/3/1 233/4/1
f 544/25/1 545/26/1 237/3/1 235/4/1

