# Wavefront OBJ file automatically generated by Tiled2Unity

# Vertices (Count = 60)
v -1024 -864 0
v -1056 -864 0
v -1056 -832 0
v -1024 -832 0
v -1088 -864 0
v -1088 -832 0
v -1120 -864 0
v -1120 -832 0
v -1152 -864 0
v -1152 -832 0
v -1184 -864 0
v -1184 -832 0
v -1216 -864 0
v -1216 -832 0
v -1248 -864 0
v -1248 -832 0
v -1280 -864 0
v -1280 -832 0
v -1312 -864 0
v -1312 -832 0
v -1344 -864 0
v -1344 -832 0
v -1312 -896 0
v -1344 -896 0
v -1024 -928 0
v -1056 -928 0
v -1056 -896 0
v -1024 -896 0
v -1312 -928 0
v -1344 -928 0
v -1024 -960 0
v -1056 -960 0
v -1312 -960 0
v -1344 -960 0
v -1024 -992 0
v -1056 -992 0
v -1312 -992 0
v -1344 -992 0
v -1024 -1024 0
v -1056 -1024 0
v -1312 -1024 0
v -1344 -1024 0
v -1024 -1056 0
v -1056 -1056 0
v -1088 -1056 0
v -1088 -1024 0
v -1120 -1056 0
v -1120 -1024 0
v -1152 -1056 0
v -1152 -1024 0
v -1184 -1056 0
v -1184 -1024 0
v -1216 -1056 0
v -1216 -1024 0
v -1248 -1056 0
v -1248 -1024 0
v -1280 -1056 0
v -1280 -1024 0
v -1312 -1056 0
v -1344 -1056 0

# Texture cooridinates (Count = 8)
vt 0.08238428 0.0492177
vt 0.1232712 0.0492177
vt 0.1232712 0.09031719
vt 0.08238428 0.09031719
vt 0.0001220703 0.9507394
vt 0.02765571 0.9507394
vt 0.02765571 0.9998779
vt 0.0001220703 0.9998779

# Normal
vn 0 0 -1

# Groups (Count = 2)

g mesh_0001
f 1/1/1 2/2/1 3/3/1 4/4/1
f 2/1/1 5/2/1 6/3/1 3/4/1
f 5/1/1 7/2/1 8/3/1 6/4/1
f 7/1/1 9/2/1 10/3/1 8/4/1
f 9/1/1 11/2/1 12/3/1 10/4/1
f 11/1/1 13/2/1 14/3/1 12/4/1
f 13/1/1 15/2/1 16/3/1 14/4/1
f 15/1/1 17/2/1 18/3/1 16/4/1
f 17/1/1 19/2/1 20/3/1 18/4/1
f 19/1/1 21/2/1 22/3/1 20/4/1
f 23/1/1 24/2/1 21/3/1 19/4/1
f 25/1/1 26/2/1 27/3/1 28/4/1
f 29/1/1 30/2/1 24/3/1 23/4/1
f 31/1/1 32/2/1 26/3/1 25/4/1
f 33/1/1 34/2/1 30/3/1 29/4/1
f 35/1/1 36/2/1 32/3/1 31/4/1
f 37/1/1 38/2/1 34/3/1 33/4/1
f 39/1/1 40/2/1 36/3/1 35/4/1
f 41/1/1 42/2/1 38/3/1 37/4/1
f 43/1/1 44/2/1 40/3/1 39/4/1
f 44/1/1 45/2/1 46/3/1 40/4/1
f 45/1/1 47/2/1 48/3/1 46/4/1
f 47/1/1 49/2/1 50/3/1 48/4/1
f 49/1/1 51/2/1 52/3/1 50/4/1
f 51/1/1 53/2/1 54/3/1 52/4/1
f 53/1/1 55/2/1 56/3/1 54/4/1
f 55/1/1 57/2/1 58/3/1 56/4/1
f 57/1/1 59/2/1 41/3/1 58/4/1
f 59/1/1 60/2/1 42/3/1 41/4/1

g mesh_0002
f 1/5/1 2/6/1 3/7/1 4/8/1
f 2/5/1 5/6/1 6/7/1 3/8/1
f 5/5/1 7/6/1 8/7/1 6/8/1
f 7/5/1 9/6/1 10/7/1 8/8/1
f 9/5/1 11/6/1 12/7/1 10/8/1
f 11/5/1 13/6/1 14/7/1 12/8/1
f 13/5/1 15/6/1 16/7/1 14/8/1
f 15/5/1 17/6/1 18/7/1 16/8/1
f 17/5/1 19/6/1 20/7/1 18/8/1
f 19/5/1 21/6/1 22/7/1 20/8/1
f 23/5/1 24/6/1 21/7/1 19/8/1
f 25/5/1 26/6/1 27/7/1 28/8/1
f 29/5/1 30/6/1 24/7/1 23/8/1
f 31/5/1 32/6/1 26/7/1 25/8/1
f 33/5/1 34/6/1 30/7/1 29/8/1
f 35/5/1 36/6/1 32/7/1 31/8/1
f 37/5/1 38/6/1 34/7/1 33/8/1
f 39/5/1 40/6/1 36/7/1 35/8/1
f 41/5/1 42/6/1 38/7/1 37/8/1
f 43/5/1 44/6/1 40/7/1 39/8/1
f 44/5/1 45/6/1 46/7/1 40/8/1
f 45/5/1 47/6/1 48/7/1 46/8/1
f 47/5/1 49/6/1 50/7/1 48/8/1
f 49/5/1 51/6/1 52/7/1 50/8/1
f 51/5/1 53/6/1 54/7/1 52/8/1
f 53/5/1 55/6/1 56/7/1 54/8/1
f 55/5/1 57/6/1 58/7/1 56/8/1
f 57/5/1 59/6/1 41/7/1 58/8/1
f 59/5/1 60/6/1 42/7/1 41/8/1

